<mxfile host="app.diagrams.net" modified="2024-01-04T14:02:54.458Z" agent="Mozilla/5.0 (Windows NT 10.0; Win64; x64) AppleWebKit/537.36 (KHTML, like Gecko) Chrome/120.0.0.0 Safari/537.36 Edg/120.0.0.0" etag="xOqt5ULmHEBXjlXOlbo7" version="22.1.16" type="github">
  <diagram name="Page-1" id="CrpqMkDRIZQeaA1OXc3l">
    <mxGraphModel dx="1497" dy="1527" grid="1" gridSize="10" guides="1" tooltips="1" connect="1" arrows="1" fold="1" page="1" pageScale="1" pageWidth="1169" pageHeight="827" math="0" shadow="0">
      <root>
        <mxCell id="0" />
        <mxCell id="1" parent="0" />
        <mxCell id="_aldfiEPJMTdTDlrZeso-5" value="artist_band" style="rounded=0;whiteSpace=wrap;html=1;" vertex="1" parent="1">
          <mxGeometry x="630" y="60" width="120" height="60" as="geometry" />
        </mxCell>
        <mxCell id="_aldfiEPJMTdTDlrZeso-6" value="artist_band_album" style="rounded=0;whiteSpace=wrap;html=1;" vertex="1" parent="1">
          <mxGeometry x="830" y="150" width="120" height="60" as="geometry" />
        </mxCell>
        <mxCell id="_aldfiEPJMTdTDlrZeso-7" value="producer" style="rounded=0;whiteSpace=wrap;html=1;" vertex="1" parent="1">
          <mxGeometry x="830" y="-330" width="120" height="60" as="geometry" />
        </mxCell>
        <mxCell id="_aldfiEPJMTdTDlrZeso-8" value="song" style="rounded=0;whiteSpace=wrap;html=1;" vertex="1" parent="1">
          <mxGeometry x="830" y="-200" width="120" height="60" as="geometry" />
        </mxCell>
        <mxCell id="_aldfiEPJMTdTDlrZeso-9" value="genre" style="rounded=0;whiteSpace=wrap;html=1;" vertex="1" parent="1">
          <mxGeometry x="400" y="-10" width="120" height="60" as="geometry" />
        </mxCell>
        <mxCell id="_aldfiEPJMTdTDlrZeso-10" value="label" style="rounded=0;whiteSpace=wrap;html=1;" vertex="1" parent="1">
          <mxGeometry x="630" y="200" width="120" height="60" as="geometry" />
        </mxCell>
        <mxCell id="_aldfiEPJMTdTDlrZeso-11" value="release_date" style="rounded=0;whiteSpace=wrap;html=1;" vertex="1" parent="1">
          <mxGeometry x="1169" y="-200" width="120" height="60" as="geometry" />
        </mxCell>
        <mxCell id="_aldfiEPJMTdTDlrZeso-12" value="place_founded" style="rounded=0;whiteSpace=wrap;html=1;" vertex="1" parent="1">
          <mxGeometry x="400" y="140" width="120" height="60" as="geometry" />
        </mxCell>
        <mxCell id="_aldfiEPJMTdTDlrZeso-13" value="" style="edgeStyle=entityRelationEdgeStyle;fontSize=12;html=1;endArrow=ERoneToMany;rounded=0;exitX=1;exitY=0.5;exitDx=0;exitDy=0;entryX=0;entryY=0.5;entryDx=0;entryDy=0;" edge="1" parent="1" source="_aldfiEPJMTdTDlrZeso-5" target="_aldfiEPJMTdTDlrZeso-6">
          <mxGeometry width="100" height="100" relative="1" as="geometry">
            <mxPoint x="780" y="320" as="sourcePoint" />
            <mxPoint x="880" y="220" as="targetPoint" />
          </mxGeometry>
        </mxCell>
        <mxCell id="_aldfiEPJMTdTDlrZeso-14" value="album" style="rounded=0;whiteSpace=wrap;html=1;" vertex="1" parent="1">
          <mxGeometry x="1030" y="60" width="120" height="60" as="geometry" />
        </mxCell>
        <mxCell id="_aldfiEPJMTdTDlrZeso-15" value="" style="edgeStyle=entityRelationEdgeStyle;fontSize=12;html=1;endArrow=ERoneToMany;rounded=0;exitX=0;exitY=0.5;exitDx=0;exitDy=0;entryX=1;entryY=0.5;entryDx=0;entryDy=0;" edge="1" parent="1" source="_aldfiEPJMTdTDlrZeso-14" target="_aldfiEPJMTdTDlrZeso-6">
          <mxGeometry width="100" height="100" relative="1" as="geometry">
            <mxPoint x="780" y="320" as="sourcePoint" />
            <mxPoint x="880" y="220" as="targetPoint" />
          </mxGeometry>
        </mxCell>
        <mxCell id="_aldfiEPJMTdTDlrZeso-16" value="" style="edgeStyle=orthogonalEdgeStyle;fontSize=12;html=1;endArrow=ERmany;rounded=0;exitX=0.25;exitY=0;exitDx=0;exitDy=0;entryX=0;entryY=0.5;entryDx=0;entryDy=0;" edge="1" parent="1" source="_aldfiEPJMTdTDlrZeso-5" target="_aldfiEPJMTdTDlrZeso-17">
          <mxGeometry width="100" height="100" relative="1" as="geometry">
            <mxPoint x="780" y="160" as="sourcePoint" />
            <mxPoint x="880" y="60" as="targetPoint" />
          </mxGeometry>
        </mxCell>
        <mxCell id="_aldfiEPJMTdTDlrZeso-17" value="artist_band_song" style="rounded=0;whiteSpace=wrap;html=1;" vertex="1" parent="1">
          <mxGeometry x="710" y="-70" width="120" height="60" as="geometry" />
        </mxCell>
        <mxCell id="_aldfiEPJMTdTDlrZeso-18" value="song_album" style="rounded=0;whiteSpace=wrap;html=1;" vertex="1" parent="1">
          <mxGeometry x="950" y="-70" width="120" height="60" as="geometry" />
        </mxCell>
        <mxCell id="_aldfiEPJMTdTDlrZeso-19" value="" style="edgeStyle=orthogonalEdgeStyle;fontSize=12;html=1;endArrow=ERoneToMany;rounded=0;exitX=0.25;exitY=1;exitDx=0;exitDy=0;entryX=0.5;entryY=0;entryDx=0;entryDy=0;" edge="1" parent="1" source="_aldfiEPJMTdTDlrZeso-8" target="_aldfiEPJMTdTDlrZeso-17">
          <mxGeometry width="100" height="100" relative="1" as="geometry">
            <mxPoint x="780" y="70" as="sourcePoint" />
            <mxPoint x="880" y="-30" as="targetPoint" />
          </mxGeometry>
        </mxCell>
        <mxCell id="_aldfiEPJMTdTDlrZeso-20" value="" style="edgeStyle=orthogonalEdgeStyle;fontSize=12;html=1;endArrow=ERmany;rounded=0;entryX=0.5;entryY=0;entryDx=0;entryDy=0;exitX=0.75;exitY=1;exitDx=0;exitDy=0;" edge="1" parent="1" source="_aldfiEPJMTdTDlrZeso-8" target="_aldfiEPJMTdTDlrZeso-18">
          <mxGeometry width="100" height="100" relative="1" as="geometry">
            <mxPoint x="780" y="70" as="sourcePoint" />
            <mxPoint x="880" y="-30" as="targetPoint" />
          </mxGeometry>
        </mxCell>
        <mxCell id="_aldfiEPJMTdTDlrZeso-21" value="" style="edgeStyle=orthogonalEdgeStyle;fontSize=12;html=1;endArrow=ERoneToMany;rounded=0;entryX=1;entryY=0.5;entryDx=0;entryDy=0;exitX=0.5;exitY=0;exitDx=0;exitDy=0;" edge="1" parent="1" source="_aldfiEPJMTdTDlrZeso-14" target="_aldfiEPJMTdTDlrZeso-18">
          <mxGeometry width="100" height="100" relative="1" as="geometry">
            <mxPoint x="780" y="70" as="sourcePoint" />
            <mxPoint x="880" y="-30" as="targetPoint" />
          </mxGeometry>
        </mxCell>
        <mxCell id="_aldfiEPJMTdTDlrZeso-22" value="" style="edgeStyle=orthogonalEdgeStyle;fontSize=12;html=1;endArrow=ERoneToMany;rounded=0;exitX=0;exitY=0.25;exitDx=0;exitDy=0;entryX=1;entryY=0.5;entryDx=0;entryDy=0;" edge="1" parent="1" source="_aldfiEPJMTdTDlrZeso-5" target="_aldfiEPJMTdTDlrZeso-9">
          <mxGeometry width="100" height="100" relative="1" as="geometry">
            <mxPoint x="780" y="160" as="sourcePoint" />
            <mxPoint x="880" y="60" as="targetPoint" />
          </mxGeometry>
        </mxCell>
        <mxCell id="_aldfiEPJMTdTDlrZeso-23" value="" style="edgeStyle=orthogonalEdgeStyle;fontSize=12;html=1;endArrow=ERoneToMany;rounded=0;exitX=0.5;exitY=0;exitDx=0;exitDy=0;entryX=0.5;entryY=1;entryDx=0;entryDy=0;" edge="1" parent="1" source="_aldfiEPJMTdTDlrZeso-8" target="_aldfiEPJMTdTDlrZeso-7">
          <mxGeometry width="100" height="100" relative="1" as="geometry">
            <mxPoint x="780" y="-90" as="sourcePoint" />
            <mxPoint x="880" y="-190" as="targetPoint" />
          </mxGeometry>
        </mxCell>
        <mxCell id="_aldfiEPJMTdTDlrZeso-24" value="" style="edgeStyle=orthogonalEdgeStyle;fontSize=12;html=1;endArrow=ERmandOne;startArrow=ERmandOne;rounded=0;exitX=0.5;exitY=0;exitDx=0;exitDy=0;entryX=0.5;entryY=1;entryDx=0;entryDy=0;" edge="1" parent="1" source="_aldfiEPJMTdTDlrZeso-10" target="_aldfiEPJMTdTDlrZeso-5">
          <mxGeometry width="100" height="100" relative="1" as="geometry">
            <mxPoint x="780" y="160" as="sourcePoint" />
            <mxPoint x="880" y="60" as="targetPoint" />
          </mxGeometry>
        </mxCell>
        <mxCell id="_aldfiEPJMTdTDlrZeso-25" value="" style="edgeStyle=orthogonalEdgeStyle;fontSize=12;html=1;endArrow=ERmandOne;startArrow=ERmandOne;rounded=0;entryX=0.5;entryY=1;entryDx=0;entryDy=0;exitX=1;exitY=0.5;exitDx=0;exitDy=0;" edge="1" parent="1" source="_aldfiEPJMTdTDlrZeso-14" target="_aldfiEPJMTdTDlrZeso-11">
          <mxGeometry width="100" height="100" relative="1" as="geometry">
            <mxPoint x="780" y="-10" as="sourcePoint" />
            <mxPoint x="880" y="-110" as="targetPoint" />
          </mxGeometry>
        </mxCell>
        <mxCell id="_aldfiEPJMTdTDlrZeso-26" value="" style="edgeStyle=orthogonalEdgeStyle;fontSize=12;html=1;endArrow=ERmandOne;startArrow=ERmandOne;rounded=0;entryX=0;entryY=0.75;entryDx=0;entryDy=0;" edge="1" parent="1" source="_aldfiEPJMTdTDlrZeso-12" target="_aldfiEPJMTdTDlrZeso-5">
          <mxGeometry width="100" height="100" relative="1" as="geometry">
            <mxPoint x="780" y="70" as="sourcePoint" />
            <mxPoint x="880" y="-30" as="targetPoint" />
          </mxGeometry>
        </mxCell>
        <mxCell id="_aldfiEPJMTdTDlrZeso-27" value="" style="edgeStyle=entityRelationEdgeStyle;fontSize=12;html=1;endArrow=ERmandOne;startArrow=ERmandOne;rounded=0;entryX=0;entryY=0.5;entryDx=0;entryDy=0;exitX=1;exitY=0.5;exitDx=0;exitDy=0;" edge="1" parent="1" source="_aldfiEPJMTdTDlrZeso-8" target="_aldfiEPJMTdTDlrZeso-11">
          <mxGeometry width="100" height="100" relative="1" as="geometry">
            <mxPoint x="780" y="-10" as="sourcePoint" />
            <mxPoint x="880" y="-110" as="targetPoint" />
          </mxGeometry>
        </mxCell>
        <mxCell id="_aldfiEPJMTdTDlrZeso-29" value="" style="edgeStyle=orthogonalEdgeStyle;fontSize=12;html=1;endArrow=ERmandOne;startArrow=ERmandOne;rounded=0;exitX=0.5;exitY=0;exitDx=0;exitDy=0;entryX=0;entryY=0.5;entryDx=0;entryDy=0;" edge="1" parent="1" source="_aldfiEPJMTdTDlrZeso-9" target="_aldfiEPJMTdTDlrZeso-8">
          <mxGeometry width="100" height="100" relative="1" as="geometry">
            <mxPoint x="780" y="-10" as="sourcePoint" />
            <mxPoint x="880" y="-110" as="targetPoint" />
          </mxGeometry>
        </mxCell>
        <mxCell id="_aldfiEPJMTdTDlrZeso-30" value="" style="edgeStyle=orthogonalEdgeStyle;fontSize=12;html=1;endArrow=ERoneToMany;rounded=0;exitX=1;exitY=0.5;exitDx=0;exitDy=0;entryX=0.5;entryY=1;entryDx=0;entryDy=0;" edge="1" parent="1" source="_aldfiEPJMTdTDlrZeso-10" target="_aldfiEPJMTdTDlrZeso-14">
          <mxGeometry width="100" height="100" relative="1" as="geometry">
            <mxPoint x="780" y="-10" as="sourcePoint" />
            <mxPoint x="880" y="-110" as="targetPoint" />
          </mxGeometry>
        </mxCell>
      </root>
    </mxGraphModel>
  </diagram>
</mxfile>
